<svg xmlns="http://www.w3.org/2000/svg" viewBox="0 0 48 48"><defs><style>.cls-1{fill:#201602;}</style></defs><title>Asset 22ldpi</title><g id="Layer_2" data-name="Layer 2"><g id="layer_1-2" data-name="layer 1"><path class="cls-1" d="M7,27H5V11H1a1,1,0,0,1-.92-.62A1,1,0,0,1,.29,9.29l9-9a1,1,0,0,1,1.42,0l9,9a1,1,0,0,1,.21,1.09A1,1,0,0,1,19,11H15v3H13V10a1,1,0,0,1,1-1h2.59L10,2.41,3.41,9H6a1,1,0,0,1,1,1Z"/><rect class="cls-1" x="5" y="29" width="2" height="19"/><path class="cls-1" d="M24,36A12,12,0,1,1,36,24,12,12,0,0,1,24,36Zm0-22A10,10,0,1,0,34,24,10,10,0,0,0,24,14Z"/><path class="cls-1" d="M24,31a4,4,0,0,1-4-4h2a2,2,0,1,0,2-2,4,4,0,1,1,4-4H26a2,2,0,1,0-2,2,4,4,0,0,1,0,8Z"/><rect class="cls-1" x="23" y="30" width="2" height="3"/><rect class="cls-1" x="23" y="15" width="2" height="3"/><rect class="cls-1" x="30" y="23" width="2" height="2"/><rect class="cls-1" x="16" y="23" width="2" height="2"/><rect class="cls-1" x="13" y="34" width="2" height="14"/><path class="cls-1" d="M38,48a1,1,0,0,1-.71-.29l-9-9a1,1,0,0,1-.21-1.09A1,1,0,0,1,29,37h4V34h2v4a1,1,0,0,1-1,1H31.41L38,45.59,44.59,39H42a1,1,0,0,1-1-1V21h2V37h4a1,1,0,0,1,.92.62,1,1,0,0,1-.21,1.09l-9,9A1,1,0,0,1,38,48Z"/><rect class="cls-1" x="41" width="2" height="19"/><rect class="cls-1" x="33" width="2" height="14"/></g></g></svg>